<svg width="90" height="86" viewBox="0 0 90 86" fill="none" xmlns="http://www.w3.org/2000/svg">
<path d="M31.0909 85.9091L23.3182 72.8182L8.59091 69.5455L10.0227 54.4091L0 42.9545L10.0227 31.5L8.59091 16.3636L23.3182 13.0909L31.0909 0L45 5.93182L58.9091 0L66.6818 13.0909L81.4091 16.3636L79.9773 31.5L90 42.9545L79.9773 54.4091L81.4091 69.5455L66.6818 72.8182L58.9091 85.9091L45 79.9773L31.0909 85.9091ZM34.5682 75.4773L45 70.9773L55.6364 75.4773L61.3636 65.6591L72.6136 63L71.5909 51.5455L79.1591 42.9545L71.5909 34.1591L72.6136 22.7045L61.3636 20.25L55.4318 10.4318L45 14.9318L34.3636 10.4318L28.6364 20.25L17.3864 22.7045L18.4091 34.1591L10.8409 42.9545L18.4091 51.5455L17.3864 63.2045L28.6364 65.6591L34.5682 75.4773ZM40.7045 57.4773L63.8182 34.3636L58.0909 28.4318L40.7045 45.8182L31.9091 37.2273L26.1818 42.9545L40.7045 57.4773Z" fill="white"/>
</svg>
