<svg width="72" height="72" viewBox="0 0 72 72" fill="none" xmlns="http://www.w3.org/2000/svg">
<path d="M10.5 61.6666C7.375 58.5416 4.92708 54.9305 3.15625 50.8333C1.38542 46.7361 0.5 42.5 0.5 38.125C0.5 33.75 1.33333 29.4271 3 25.1562C4.66667 20.8854 7.375 16.875 11.125 13.125C13.5556 10.6944 16.559 8.61108 20.1354 6.87497C23.7118 5.13886 27.9479 3.76733 32.8438 2.76039C37.7396 1.75344 43.3299 1.14581 49.6146 0.937472C55.8993 0.729138 62.9306 0.972194 70.7083 1.66664C71.2639 9.02775 71.4375 15.7986 71.2292 21.9791C71.0208 28.1597 70.4479 33.7326 69.5104 38.6979C68.5729 43.6632 67.2535 48.0034 65.5521 51.7187C63.8507 55.434 61.75 58.5416 59.25 61.0416C55.5694 64.7222 51.6632 67.4132 47.5312 69.1146C43.3993 70.8159 39.1806 71.6666 34.875 71.6666C30.3611 71.6666 25.9514 70.7812 21.6458 69.0104C17.3403 67.2396 13.625 64.7916 10.5 61.6666ZM22.1667 60C24.1806 61.1805 26.2465 62.0312 28.3646 62.5521C30.4826 63.0729 32.6528 63.3333 34.875 63.3333C38.0694 63.3333 41.2292 62.6909 44.3542 61.4062C47.4792 60.1215 50.4653 58.0555 53.3125 55.2083C54.5625 53.9583 55.8299 52.2048 57.1146 49.9479C58.3993 47.6909 59.5104 44.7396 60.4479 41.0937C61.3854 37.4479 62.0972 33.0382 62.5833 27.8646C63.0694 22.6909 63.1389 16.5278 62.7917 9.37497C59.3889 9.23608 55.5521 9.184 51.2812 9.21872C47.0104 9.25344 42.7569 9.58331 38.5208 10.2083C34.2847 10.8333 30.2569 11.8403 26.4375 13.2291C22.6181 14.618 19.4931 16.5278 17.0625 18.9583C13.9375 22.0833 11.7847 25.1736 10.6042 28.2291C9.42361 31.2847 8.83333 34.2361 8.83333 37.0833C8.83333 41.1805 9.61458 44.7743 11.1771 47.8646C12.7396 50.9548 14.1111 53.125 15.2917 54.375C18.2083 48.8194 22.0625 43.4896 26.8542 38.3854C31.6458 33.2812 37.2361 29.0972 43.625 25.8333C38.625 30.2083 34.2674 35.1562 30.5521 40.6771C26.8368 46.1979 24.0417 52.6389 22.1667 60Z" fill="white"/>
</svg>
