<svg width="58" height="54" viewBox="0 0 58 54" fill="none" xmlns="http://www.w3.org/2000/svg">
<path d="M7.99579 45.407V0H17.2852C20.7051 0 23.5012 0.346618 25.6733 1.03985C27.8917 1.68687 29.7634 2.86538 31.2885 4.57536C32.8137 6.28535 33.8997 8.61924 34.5468 11.5771C35.24 14.4886 35.5866 18.209 35.5866 22.7382C35.5866 27.2211 35.2169 30.9646 34.4774 33.9686C33.738 36.9264 32.5595 39.2372 30.9419 40.901C29.3244 42.5647 27.4295 43.7432 25.2574 44.4365C23.0852 45.0835 20.3816 45.407 17.1465 45.407H7.99579ZM25.396 40.4157C27.3833 39.399 28.8853 37.5041 29.9021 34.7312C30.965 31.912 31.4965 27.9143 31.4965 22.7382C31.4965 17.5158 30.9881 13.5181 29.9714 10.7452C28.9546 7.92601 27.4757 6.00805 25.5347 4.99131C23.5936 3.97456 20.8438 3.46618 17.2852 3.46618H11.8086V41.9408H17.1465C20.7051 41.9408 23.455 41.4325 25.396 40.4157Z" fill="url(#paint0_linear_27_121)"/>
<path d="M27.2516 40.3345V35.3331L13.0521 11.993H12.8796V40.3345H7.47577V2.67993H12.8796L27.0217 26.25H27.2516V2.67993H32.6555V40.3345H27.2516Z" fill="url(#paint1_linear_27_121)"/>
<g filter="url(#filter0_d_27_121)">
<path d="M0 52.5084V47.1925H1.08754C1.48792 47.1925 1.81527 47.2331 2.06957 47.3142C2.32928 47.39 2.54841 47.5279 2.72696 47.7281C2.90551 47.9283 3.03266 48.2016 3.10841 48.5478C3.18957 48.8887 3.23015 49.3243 3.23015 49.8545C3.23015 50.3793 3.18686 50.8176 3.10029 51.1693C3.01372 51.5156 2.87575 51.7861 2.68638 51.9809C2.497 52.1757 2.27517 52.3136 2.02087 52.3948C1.76657 52.4706 1.45005 52.5084 1.0713 52.5084H0ZM2.0371 51.9241C2.26976 51.805 2.4456 51.5832 2.56464 51.2586C2.68908 50.9285 2.7513 50.4605 2.7513 49.8545C2.7513 49.2431 2.69179 48.7751 2.57275 48.4505C2.45372 48.1204 2.28058 47.8959 2.05333 47.7768C1.82609 47.6578 1.50415 47.5983 1.08754 47.5983H0.446377V52.1026H1.0713C1.48792 52.1026 1.80986 52.0431 2.0371 51.9241Z" fill="url(#paint2_linear_27_121)"/>
<path d="M3.89565 49.7977C3.89565 49.3757 3.92271 49.0105 3.97681 48.7021C4.03092 48.3936 4.11749 48.115 4.23652 47.8661C4.48 47.3629 4.93449 47.1113 5.6 47.1113C6.35749 47.1167 6.85527 47.4711 7.09333 48.1745C7.23401 48.5803 7.30435 49.0592 7.30435 49.611C7.30435 50.1575 7.27729 50.5931 7.22319 50.9177C7.16908 51.2423 7.08251 51.5345 6.96348 51.7942C6.71459 52.3245 6.2601 52.5896 5.6 52.5896C4.95072 52.5896 4.49894 52.3245 4.24464 51.7942C4.01198 51.3127 3.89565 50.6472 3.89565 49.7977ZM6.82551 49.8626C6.82551 49.5705 6.81739 49.3351 6.80116 49.1565C6.79034 48.978 6.76058 48.7805 6.71188 48.5641C6.66319 48.3477 6.59556 48.1691 6.50899 48.0284C6.42783 47.8878 6.30879 47.7714 6.15188 47.6794C6.00039 47.5821 5.81642 47.5334 5.6 47.5334C5.38357 47.5334 5.19691 47.5821 5.04 47.6794C4.8885 47.7714 4.76947 47.8878 4.6829 48.0284C4.60174 48.1691 4.53681 48.3477 4.48812 48.5641C4.41237 48.8995 4.37449 49.2729 4.37449 49.6841C4.37449 50.0899 4.38802 50.4199 4.41507 50.6742C4.44754 50.9231 4.50435 51.1693 4.58551 51.4128C4.75324 51.916 5.0914 52.1676 5.6 52.1676C6.11942 52.1676 6.46029 51.9133 6.62261 51.4047C6.76328 50.9718 6.83092 50.4578 6.82551 49.8626Z" fill="url(#paint3_linear_27_121)"/>
<path d="M14.8846 52.5084V51.6725L12.5716 48.0365H12.5472V52.5084H12.1009V47.1925H12.5391L14.8603 50.869H14.8846V47.1925H15.331V52.5084H14.8846Z" fill="url(#paint4_linear_27_121)"/>
<path d="M16.0696 49.7977C16.0696 49.3757 16.0966 49.0105 16.1507 48.7021C16.2048 48.3936 16.2914 48.115 16.4104 47.8661C16.6539 47.3629 17.1084 47.1113 17.7739 47.1113C18.5314 47.1167 19.0292 47.4711 19.2672 48.1745C19.4079 48.5803 19.4783 49.0592 19.4783 49.611C19.4783 50.1575 19.4512 50.5931 19.3971 50.9177C19.343 51.2423 19.2564 51.5345 19.1374 51.7942C18.8885 52.3245 18.434 52.5896 17.7739 52.5896C17.1246 52.5896 16.6728 52.3245 16.4186 51.7942C16.1859 51.3127 16.0696 50.6472 16.0696 49.7977ZM18.9994 49.8626C18.9994 49.5705 18.9913 49.3351 18.9751 49.1565C18.9643 48.978 18.9345 48.7805 18.8858 48.5641C18.8371 48.3477 18.7695 48.1691 18.6829 48.0284C18.6017 47.8878 18.4827 47.7714 18.3258 47.6794C18.1743 47.5821 17.9903 47.5334 17.7739 47.5334C17.5575 47.5334 17.3708 47.5821 17.2139 47.6794C17.0624 47.7714 16.9434 47.8878 16.8568 48.0284C16.7757 48.1691 16.7107 48.3477 16.662 48.5641C16.5863 48.8995 16.5484 49.2729 16.5484 49.6841C16.5484 50.0899 16.5619 50.4199 16.589 50.6742C16.6214 50.9231 16.6783 51.1693 16.7594 51.4128C16.9271 51.916 17.2653 52.1676 17.7739 52.1676C18.2933 52.1676 18.6342 51.9133 18.7965 51.4047C18.9372 50.9718 19.0048 50.4578 18.9994 49.8626Z" fill="url(#paint5_linear_27_121)"/>
<path d="M21.6371 49.96C21.1556 49.841 20.8012 49.6706 20.5739 49.4487C20.3521 49.2215 20.2412 48.8941 20.2412 48.4667C20.2412 48.0393 20.3872 47.7065 20.6794 47.4684C20.977 47.2304 21.3585 47.1113 21.8238 47.1113C22.2891 47.1113 22.7625 47.1952 23.2441 47.3629L23.1304 47.7768C22.6814 47.6145 22.2674 47.5334 21.8887 47.5334C21.5154 47.5334 21.2286 47.6145 21.0284 47.7768C20.8282 47.9337 20.7281 48.1637 20.7281 48.4667C20.7281 48.7697 20.8093 48.9996 20.9716 49.1565C21.1339 49.3135 21.4558 49.4568 21.9374 49.5867C22.4243 49.7111 22.776 49.8789 22.9925 50.0899C23.2089 50.2955 23.3171 50.6309 23.3171 51.0963C23.3171 51.5562 23.1602 51.9214 22.8464 52.1919C22.538 52.457 22.1376 52.5896 21.6452 52.5896C21.2773 52.5896 20.812 52.5111 20.2493 52.3542L20.3548 51.9403C20.9067 52.0918 21.3503 52.1676 21.6858 52.1676C22.0213 52.1676 22.2972 52.0756 22.5136 51.8916C22.73 51.7022 22.8383 51.4398 22.8383 51.1044C22.8383 50.7689 22.7598 50.5227 22.6029 50.3658C22.446 50.2089 22.1241 50.0736 21.6371 49.96Z" fill="url(#paint6_linear_27_121)"/>
<path d="M25.6951 49.96C25.2135 49.841 24.8591 49.6706 24.6319 49.4487C24.41 49.2215 24.2991 48.8941 24.2991 48.4667C24.2991 48.0393 24.4452 47.7065 24.7374 47.4684C25.035 47.2304 25.4164 47.1113 25.8817 47.1113C26.3471 47.1113 26.8205 47.1952 27.302 47.3629L27.1884 47.7768C26.7393 47.6145 26.3254 47.5334 25.9467 47.5334C25.5733 47.5334 25.2866 47.6145 25.0864 47.7768C24.8862 47.9337 24.7861 48.1637 24.7861 48.4667C24.7861 48.7697 24.8672 48.9996 25.0296 49.1565C25.1919 49.3135 25.5138 49.4568 25.9954 49.5867C26.4823 49.7111 26.834 49.8789 27.0504 50.0899C27.2669 50.2955 27.3751 50.6309 27.3751 51.0963C27.3751 51.5562 27.2182 51.9214 26.9043 52.1919C26.5959 52.457 26.1956 52.5896 25.7032 52.5896C25.3353 52.5896 24.8699 52.5111 24.3072 52.3542L24.4128 51.9403C24.9646 52.0918 25.4083 52.1676 25.7438 52.1676C26.0792 52.1676 26.3552 52.0756 26.5716 51.8916C26.788 51.7022 26.8962 51.4398 26.8962 51.1044C26.8962 50.7689 26.8178 50.5227 26.6609 50.3658C26.504 50.2089 26.182 50.0736 25.6951 49.96Z" fill="url(#paint7_linear_27_121)"/>
<path d="M28.2435 49.7977C28.2435 49.3757 28.2705 49.0105 28.3246 48.7021C28.3787 48.3936 28.4653 48.115 28.5843 47.8661C28.8278 47.3629 29.2823 47.1113 29.9478 47.1113C30.7053 47.1167 31.2031 47.4711 31.4412 48.1745C31.5818 48.5803 31.6522 49.0592 31.6522 49.611C31.6522 50.1575 31.6251 50.5931 31.571 50.9177C31.5169 51.2423 31.4303 51.5345 31.3113 51.7942C31.0624 52.3245 30.6079 52.5896 29.9478 52.5896C29.2985 52.5896 28.8468 52.3245 28.5925 51.7942C28.3598 51.3127 28.2435 50.6472 28.2435 49.7977ZM31.1733 49.8626C31.1733 49.5705 31.1652 49.3351 31.149 49.1565C31.1382 48.978 31.1084 48.7805 31.0597 48.5641C31.011 48.3477 30.9434 48.1691 30.8568 48.0284C30.7757 47.8878 30.6566 47.7714 30.4997 47.6794C30.3482 47.5821 30.1642 47.5334 29.9478 47.5334C29.7314 47.5334 29.5447 47.5821 29.3878 47.6794C29.2363 47.7714 29.1173 47.8878 29.0307 48.0284C28.9496 48.1691 28.8846 48.3477 28.8359 48.5641C28.7602 48.8995 28.7223 49.2729 28.7223 49.6841C28.7223 50.0899 28.7358 50.4199 28.7629 50.6742C28.7954 50.9231 28.8522 51.1693 28.9333 51.4128C29.1011 51.916 29.4392 52.1676 29.9478 52.1676C30.4672 52.1676 30.8081 51.9133 30.9704 51.4047C31.1111 50.9718 31.1787 50.4578 31.1733 49.8626Z" fill="url(#paint8_linear_27_121)"/>
<path d="M36.8058 47.7606V47.3548H39.3136V51.0638C39.3136 51.5832 39.1378 51.9457 38.7861 52.1513C38.4398 52.3515 37.8284 52.4976 36.9519 52.5896L36.8951 52.1676C37.6471 52.0864 38.1639 51.9755 38.4452 51.8348C38.7266 51.6887 38.8672 51.4317 38.8672 51.0638V47.7606H36.8058Z" fill="url(#paint9_linear_27_121)"/>
<path d="M40.7583 52.5084V47.1925H43.5258V47.5902H41.2046V49.6029H43.3067V50.0006H41.2046V52.1107H43.5501V52.5084H40.7583Z" fill="url(#paint10_linear_27_121)"/>
<path d="M45.0516 52.5084V52.1026H45.9687V47.5983H45.0516V47.1925H47.3159V47.5983H46.4151V52.1026H47.3159V52.5084H45.0516Z" fill="url(#paint11_linear_27_121)"/>
<path d="M48.5983 47.6064V47.1925H51.8609V47.6064H50.4487V52.5084H50.0023V47.6064H48.5983Z" fill="url(#paint12_linear_27_121)"/>
<path d="M52.5913 49.7977C52.5913 49.3757 52.6184 49.0105 52.6725 48.7021C52.7266 48.3936 52.8131 48.115 52.9322 47.8661C53.1757 47.3629 53.6301 47.1113 54.2957 47.1113C55.0531 47.1167 55.5509 47.4711 55.789 48.1745C55.9297 48.5803 56 49.0592 56 49.611C56 50.1575 55.9729 50.5931 55.9188 50.9177C55.8647 51.2423 55.7782 51.5345 55.6591 51.7942C55.4102 52.3245 54.9557 52.5896 54.2957 52.5896C53.6464 52.5896 53.1946 52.3245 52.9403 51.7942C52.7076 51.3127 52.5913 50.6472 52.5913 49.7977ZM55.5212 49.8626C55.5212 49.5705 55.513 49.3351 55.4968 49.1565C55.486 48.978 55.4562 48.7805 55.4075 48.5641C55.3588 48.3477 55.2912 48.1691 55.2046 48.0284C55.1235 47.8878 55.0044 47.7714 54.8475 47.6794C54.696 47.5821 54.5121 47.5334 54.2957 47.5334C54.0792 47.5334 53.8926 47.5821 53.7357 47.6794C53.5842 47.7714 53.4651 47.8878 53.3786 48.0284C53.2974 48.1691 53.2325 48.3477 53.1838 48.5641C53.108 48.8995 53.0701 49.2729 53.0701 49.6841C53.0701 50.0899 53.0837 50.4199 53.1107 50.6742C53.1432 50.9231 53.2 51.1693 53.2812 51.4128C53.4489 51.916 53.7871 52.1676 54.2957 52.1676C54.8151 52.1676 55.1559 51.9133 55.3183 51.4047C55.4589 50.9718 55.5266 50.4578 55.5212 49.8626Z" fill="url(#paint13_linear_27_121)"/>
</g>
<path d="M52.0481 0.0930176L30.6358 0.286465V6.47679H40.6481V34.3333C40.4219 36.7971 40.0442 37.7418 38.6654 38.2022C35.5324 38.4848 33.5799 38.2536 29.6445 36.9448L28.3558 42.5548C33.4367 44.2056 36.1872 44.3925 41.1438 44.3925C44.7827 43.7155 45.4096 42.752 46.1292 41.5875C47.1452 39.9432 47.6455 37.8489 47.7855 33.5595V6.47679H52.0481V0.0930176Z" fill="url(#paint14_linear_27_121)"/>
<defs>
<filter id="filter0_d_27_121" x="0" y="47.1113" width="58" height="6.47827" filterUnits="userSpaceOnUse" color-interpolation-filters="sRGB">
<feFlood flood-opacity="0" result="BackgroundImageFix"/>
<feColorMatrix in="SourceAlpha" type="matrix" values="0 0 0 0 0 0 0 0 0 0 0 0 0 0 0 0 0 0 127 0" result="hardAlpha"/>
<feOffset dx="2" dy="1"/>
<feComposite in2="hardAlpha" operator="out"/>
<feColorMatrix type="matrix" values="0 0 0 0 0 0 0 0 0 0 0 0 0 0 0 0 0 0 0.1 0"/>
<feBlend mode="normal" in2="BackgroundImageFix" result="effect1_dropShadow_27_121"/>
<feBlend mode="normal" in="SourceGraphic" in2="effect1_dropShadow_27_121" result="shape"/>
</filter>
<linearGradient id="paint0_linear_27_121" x1="18.835" y1="-9.49762" x2="32.9431" y2="32.7673" gradientUnits="userSpaceOnUse">
<stop stop-color="#908FEB"/>
<stop offset="1" stop-color="#3A388A"/>
</linearGradient>
<linearGradient id="paint1_linear_27_121" x1="17.3678" y1="-5.19614" x2="28.1878" y2="30.4762" gradientUnits="userSpaceOnUse">
<stop stop-color="#908FEB"/>
<stop offset="1" stop-color="#3A388A"/>
</linearGradient>
<linearGradient id="paint2_linear_27_121" x1="22" y1="45.9655" x2="22.1124" y2="51.6306" gradientUnits="userSpaceOnUse">
<stop stop-color="#908FEB"/>
<stop offset="1" stop-color="#3A388A"/>
</linearGradient>
<linearGradient id="paint3_linear_27_121" x1="22" y1="45.9655" x2="22.1124" y2="51.6306" gradientUnits="userSpaceOnUse">
<stop stop-color="#908FEB"/>
<stop offset="1" stop-color="#3A388A"/>
</linearGradient>
<linearGradient id="paint4_linear_27_121" x1="22" y1="45.9655" x2="22.1124" y2="51.6306" gradientUnits="userSpaceOnUse">
<stop stop-color="#908FEB"/>
<stop offset="1" stop-color="#3A388A"/>
</linearGradient>
<linearGradient id="paint5_linear_27_121" x1="22" y1="45.9655" x2="22.1124" y2="51.6306" gradientUnits="userSpaceOnUse">
<stop stop-color="#908FEB"/>
<stop offset="1" stop-color="#3A388A"/>
</linearGradient>
<linearGradient id="paint6_linear_27_121" x1="22" y1="45.9655" x2="22.1124" y2="51.6306" gradientUnits="userSpaceOnUse">
<stop stop-color="#908FEB"/>
<stop offset="1" stop-color="#3A388A"/>
</linearGradient>
<linearGradient id="paint7_linear_27_121" x1="22" y1="45.9655" x2="22.1124" y2="51.6306" gradientUnits="userSpaceOnUse">
<stop stop-color="#908FEB"/>
<stop offset="1" stop-color="#3A388A"/>
</linearGradient>
<linearGradient id="paint8_linear_27_121" x1="22" y1="45.9655" x2="22.1124" y2="51.6306" gradientUnits="userSpaceOnUse">
<stop stop-color="#908FEB"/>
<stop offset="1" stop-color="#3A388A"/>
</linearGradient>
<linearGradient id="paint9_linear_27_121" x1="22" y1="45.9655" x2="22.1124" y2="51.6306" gradientUnits="userSpaceOnUse">
<stop stop-color="#908FEB"/>
<stop offset="1" stop-color="#3A388A"/>
</linearGradient>
<linearGradient id="paint10_linear_27_121" x1="22" y1="45.9655" x2="22.1124" y2="51.6306" gradientUnits="userSpaceOnUse">
<stop stop-color="#908FEB"/>
<stop offset="1" stop-color="#3A388A"/>
</linearGradient>
<linearGradient id="paint11_linear_27_121" x1="22" y1="45.9655" x2="22.1124" y2="51.6306" gradientUnits="userSpaceOnUse">
<stop stop-color="#908FEB"/>
<stop offset="1" stop-color="#3A388A"/>
</linearGradient>
<linearGradient id="paint12_linear_27_121" x1="22" y1="45.9655" x2="22.1124" y2="51.6306" gradientUnits="userSpaceOnUse">
<stop stop-color="#908FEB"/>
<stop offset="1" stop-color="#3A388A"/>
</linearGradient>
<linearGradient id="paint13_linear_27_121" x1="22" y1="45.9655" x2="22.1124" y2="51.6306" gradientUnits="userSpaceOnUse">
<stop stop-color="#908FEB"/>
<stop offset="1" stop-color="#3A388A"/>
</linearGradient>
<linearGradient id="paint14_linear_27_121" x1="37.6635" y1="-9.17295" x2="52.8583" y2="30.893" gradientUnits="userSpaceOnUse">
<stop stop-color="#908FEB"/>
<stop offset="1" stop-color="#3A388A"/>
</linearGradient>
</defs>
</svg>
