<svg width="54" height="60" viewBox="0 0 54 60" fill="none" xmlns="http://www.w3.org/2000/svg">
<path d="M1.01046 45C3.07835 48.589 7.66425 49.822 11.2532 47.7541C11.2557 47.7527 11.258 47.7513 11.2605 47.7499L12.373 47.1074C14.473 48.9041 16.8868 50.2975 19.4929 51.2174V52.5C19.4929 56.6421 22.8508 60 26.9929 60C31.135 60 34.4929 56.6421 34.4929 52.5V51.2175C37.0994 50.2961 39.5134 48.9011 41.6129 47.1025L42.7304 47.7475C46.3202 49.8185 50.9094 48.5873 52.9804 44.9974C55.0515 41.4076 53.8203 36.8184 50.2304 34.7474L49.1204 34.1074C49.6201 31.3886 49.6201 28.6014 49.1204 25.8824L50.2304 25.2424C53.8202 23.1714 55.0515 18.5823 52.9804 14.9924C50.9094 11.4026 46.3203 10.1713 42.7304 12.2423L41.6179 12.8849C39.5158 11.0904 37.1003 9.69961 34.4929 8.7825V7.5C34.4929 3.35789 31.135 0 26.9929 0C22.8508 0 19.4929 3.35789 19.4929 7.5V8.7825C16.8864 9.70395 14.4725 11.0989 12.373 12.8975L11.2555 12.2501C7.66554 10.1789 3.07648 11.4102 1.00542 15C-1.06563 18.5898 0.165538 23.179 3.75546 25.25L4.86546 25.89C4.36577 28.6089 4.36577 31.3961 4.86546 34.115L3.75546 34.755C0.175499 36.8316 -1.05169 41.4117 1.01046 45ZM26.9929 20C32.5157 20 36.9929 24.4772 36.9929 30C36.9929 35.5228 32.5157 40 26.9929 40C21.4701 40 16.993 35.5228 16.993 30C16.993 24.4772 21.4701 20 26.9929 20Z" fill="#8583FF"/>
</svg>
