<svg width="54" height="54" viewBox="0 0 54 54" fill="none" xmlns="http://www.w3.org/2000/svg">
<path d="M44.4317 7.38935C44.4317 3.78534 41.4988 0.852463 37.8948 0.852463H7.38933C3.78533 0.852463 0.852448 3.78534 0.852448 7.38935V11.7473C0.852448 15.3513 3.78533 18.2842 7.38933 18.2842H37.8948C41.4988 18.2842 44.4317 15.3513 44.4317 11.7473C46.8351 11.7473 48.7896 13.7018 48.7896 16.1052V18.2842C48.7896 20.6876 46.8351 22.6421 44.4317 22.6421H29.179C24.3722 22.6421 20.4631 26.5511 20.4631 31.3579V31.7589C17.9333 32.6609 16.1052 35.0578 16.1052 37.8948V46.6107C16.1052 50.2147 19.0381 53.1475 22.6421 53.1475C26.2461 53.1475 29.179 50.2147 29.179 46.6107V37.8948C29.179 35.0578 27.3508 32.6609 24.821 31.7589V31.3579C24.821 28.9545 26.7756 27 29.179 27H44.4317C49.2385 27 53.1475 23.0909 53.1475 18.2842V16.1052C53.1475 11.2984 49.2385 7.38935 44.4317 7.38935Z" fill="#8583FF"/>
</svg>
