<svg width="195" height="183" viewBox="0 0 195 183" fill="none" xmlns="http://www.w3.org/2000/svg">
<path d="M27.5568 156.492V0H59.572C71.3587 0 80.9951 1.19459 88.4812 3.58378C96.1266 5.81369 102.577 9.87532 107.834 15.7687C113.09 21.662 116.833 29.7056 119.063 39.8995C121.452 49.9341 122.647 62.7561 122.647 78.3655C122.647 93.8156 121.372 106.717 118.824 117.07C116.275 127.264 112.214 135.228 106.639 140.962C101.064 146.696 94.5338 150.758 87.0477 153.147C79.5615 155.377 70.2437 156.492 59.0941 156.492H27.5568ZM87.5255 139.29C94.3745 135.786 99.5511 129.255 103.055 119.698C106.719 109.982 108.55 96.2048 108.55 78.3655C108.55 60.3669 106.798 46.5892 103.294 37.0325C99.79 27.3164 94.6931 20.7063 88.0034 17.2022C81.3136 13.698 71.8365 11.946 59.572 11.946H40.6974V144.546H59.0941C71.3587 144.546 80.8358 142.794 87.5255 139.29Z" fill="white"/>
<path d="M93.9207 139.01V121.773L44.9831 41.3332H44.3887V139.01H25.7646V9.23645H44.3887L93.1282 90.4689H93.9207V9.23645H112.545V139.01H93.9207Z" fill="white"/>
<g filter="url(#filter0_d_27_195)">
<path d="M0 180.967V162.646H3.74812C5.12802 162.646 6.25618 162.786 7.13261 163.065C8.02768 163.327 8.7829 163.802 9.39826 164.492C10.0136 165.182 10.4518 166.124 10.7129 167.317C10.9926 168.492 11.1325 169.993 11.1325 171.82C11.1325 173.629 10.9833 175.14 10.6849 176.352C10.3866 177.545 9.91106 178.478 9.25841 179.149C8.60575 179.82 7.84121 180.296 6.96478 180.575C6.08836 180.836 4.99749 180.967 3.69217 180.967H0ZM7.02072 178.953C7.82256 178.543 8.4286 177.778 8.83884 176.659C9.26773 175.522 9.48217 173.909 9.48217 171.82C9.48217 169.713 9.27705 168.1 8.86681 166.981C8.45657 165.844 7.85986 165.07 7.07667 164.66C6.29348 164.25 5.18396 164.044 3.74812 164.044H1.53841V179.568H3.69217C5.12802 179.568 6.23754 179.363 7.02072 178.953Z" fill="white"/>
<path d="M13.4261 171.625C13.4261 170.17 13.5193 168.911 13.7058 167.849C13.8923 166.786 14.1906 165.825 14.6009 164.968C15.44 163.233 17.0064 162.366 19.3 162.366C21.9106 162.385 23.6262 163.606 24.4467 166.03C24.9315 167.429 25.1739 169.079 25.1739 170.981C25.1739 172.865 25.0807 174.366 24.8942 175.485C24.7077 176.603 24.4094 177.61 23.9991 178.505C23.1414 180.333 21.575 181.247 19.3 181.247C17.0623 181.247 15.5053 180.333 14.6288 178.505C13.827 176.846 13.4261 174.552 13.4261 171.625ZM23.5236 171.848C23.5236 170.841 23.4957 170.03 23.4397 169.415C23.4024 168.8 23.2999 168.119 23.132 167.373C22.9642 166.627 22.7311 166.012 22.4328 165.527C22.153 165.042 21.7428 164.641 21.202 164.324C20.6799 163.989 20.0459 163.821 19.3 163.821C18.5541 163.821 17.9108 163.989 17.37 164.324C16.8479 164.641 16.4376 165.042 16.1393 165.527C15.8596 166.012 15.6358 166.627 15.468 167.373C15.2069 168.529 15.0764 169.816 15.0764 171.233C15.0764 172.632 15.123 173.769 15.2162 174.645C15.3281 175.503 15.5239 176.352 15.8036 177.191C16.3817 178.925 17.5471 179.792 19.3 179.792C21.0901 179.792 22.2649 178.916 22.8243 177.163C23.3092 175.671 23.5423 173.9 23.5236 171.848Z" fill="white"/>
<path d="M51.2988 180.967V178.086L43.3271 165.555H43.2432V180.967H41.7048V162.646H43.2152L51.2149 175.317H51.2988V162.646H52.8372V180.967H51.2988Z" fill="white"/>
<path d="M55.3826 171.625C55.3826 170.17 55.4758 168.911 55.6623 167.849C55.8488 166.786 56.1471 165.825 56.5574 164.968C57.3965 163.233 58.9629 162.366 61.2565 162.366C63.8671 162.385 65.5827 163.606 66.4032 166.03C66.888 167.429 67.1304 169.079 67.1304 170.981C67.1304 172.865 67.0372 174.366 66.8507 175.485C66.6643 176.603 66.3659 177.61 65.9557 178.505C65.0979 180.333 63.5315 181.247 61.2565 181.247C59.0188 181.247 57.4618 180.333 56.5854 178.505C55.7835 176.846 55.3826 174.552 55.3826 171.625ZM65.4801 171.848C65.4801 170.841 65.4522 170.03 65.3962 169.415C65.3589 168.8 65.2564 168.119 65.0885 167.373C64.9207 166.627 64.6876 166.012 64.3893 165.527C64.1096 165.042 63.6993 164.641 63.1586 164.324C62.6364 163.989 62.0024 163.821 61.2565 163.821C60.5106 163.821 59.8673 163.989 59.3265 164.324C58.8044 164.641 58.3942 165.042 58.0958 165.527C57.8161 166.012 57.5923 166.627 57.4245 167.373C57.1634 168.529 57.0329 169.816 57.0329 171.233C57.0329 172.632 57.0795 173.769 57.1728 174.645C57.2846 175.503 57.4804 176.352 57.7601 177.191C58.3382 178.925 59.5037 179.792 61.2565 179.792C63.0467 179.792 64.2215 178.916 64.7809 177.163C65.2657 175.671 65.4988 173.9 65.4801 171.848Z" fill="white"/>
<path d="M74.5707 172.184C72.9111 171.774 71.6897 171.186 70.9065 170.422C70.142 169.639 69.7597 168.511 69.7597 167.037C69.7597 165.564 70.2632 164.417 71.2701 163.597C72.2957 162.776 73.6104 162.366 75.2141 162.366C76.8177 162.366 78.4494 162.655 80.109 163.233L79.7174 164.66C78.1697 164.1 76.7431 163.821 75.4378 163.821C74.1512 163.821 73.1628 164.1 72.4729 164.66C71.783 165.201 71.438 165.993 71.438 167.037C71.438 168.082 71.7177 168.874 72.2771 169.415C72.8365 169.956 73.946 170.45 75.6057 170.897C77.2839 171.326 78.496 171.904 79.2419 172.632C79.9878 173.34 80.3607 174.496 80.3607 176.1C80.3607 177.685 79.8199 178.944 78.7384 179.876C77.6755 180.79 76.2956 181.247 74.5987 181.247C73.3307 181.247 71.727 180.976 69.7877 180.435L70.1513 179.009C72.0533 179.531 73.5824 179.792 74.7385 179.792C75.8947 179.792 76.8457 179.475 77.5916 178.841C78.3375 178.188 78.7104 177.284 78.7104 176.128C78.7104 174.972 78.44 174.123 77.8993 173.583C77.3585 173.042 76.249 172.576 74.5707 172.184Z" fill="white"/>
<path d="M88.5562 172.184C86.8966 171.774 85.6752 171.186 84.892 170.422C84.1275 169.639 83.7452 168.511 83.7452 167.037C83.7452 165.564 84.2487 164.417 85.2557 163.597C86.2813 162.776 87.5959 162.366 89.1996 162.366C90.8032 162.366 92.4349 162.655 94.0945 163.233L93.7029 164.66C92.1552 164.1 90.7286 163.821 89.4233 163.821C88.1367 163.821 87.1484 164.1 86.4584 164.66C85.7684 165.201 85.4235 165.993 85.4235 167.037C85.4235 168.082 85.7032 168.874 86.2626 169.415C86.822 169.956 87.9315 170.45 89.5912 170.897C91.2694 171.326 92.4815 171.904 93.2274 172.632C93.9733 173.34 94.3462 174.496 94.3462 176.1C94.3462 177.685 93.8055 178.944 92.7239 179.876C91.661 180.79 90.2811 181.247 88.5842 181.247C87.3162 181.247 85.7125 180.976 83.7732 180.435L84.1368 179.009C86.0388 179.531 87.5679 179.792 88.7241 179.792C89.8802 179.792 90.8312 179.475 91.5771 178.841C92.323 178.188 92.6959 177.284 92.6959 176.128C92.6959 174.972 92.4256 174.123 91.8848 173.583C91.344 173.042 90.2345 172.576 88.5562 172.184Z" fill="white"/>
<path d="M97.3391 171.625C97.3391 170.17 97.4324 168.911 97.6188 167.849C97.8053 166.786 98.1037 165.825 98.5139 164.968C99.353 163.233 100.919 162.366 103.213 162.366C105.824 162.385 107.539 163.606 108.36 166.03C108.845 167.429 109.087 169.079 109.087 170.981C109.087 172.865 108.994 174.366 108.807 175.485C108.621 176.603 108.322 177.61 107.912 178.505C107.054 180.333 105.488 181.247 103.213 181.247C100.975 181.247 99.4183 180.333 98.5419 178.505C97.7401 176.846 97.3391 174.552 97.3391 171.625ZM107.437 171.848C107.437 170.841 107.409 170.03 107.353 169.415C107.315 168.8 107.213 168.119 107.045 167.373C106.877 166.627 106.644 166.012 106.346 165.527C106.066 165.042 105.656 164.641 105.115 164.324C104.593 163.989 103.959 163.821 103.213 163.821C102.467 163.821 101.824 163.989 101.283 164.324C100.761 164.641 100.351 165.042 100.052 165.527C99.7726 166.012 99.5488 166.627 99.381 167.373C99.12 168.529 98.9894 169.816 98.9894 171.233C98.9894 172.632 99.036 173.769 99.1293 174.645C99.2412 175.503 99.437 176.352 99.7167 177.191C100.295 178.925 101.46 179.792 103.213 179.792C105.003 179.792 106.178 178.916 106.737 177.163C107.222 175.671 107.455 173.9 107.437 171.848Z" fill="white"/>
<path d="M126.849 164.604V163.205H135.492V175.988C135.492 177.778 134.886 179.028 133.673 179.736C132.48 180.426 130.373 180.93 127.352 181.247L127.156 179.792C129.748 179.512 131.529 179.13 132.499 178.645C133.468 178.142 133.953 177.256 133.953 175.988V164.604H126.849Z" fill="white"/>
<path d="M140.47 180.967V162.646H150.009V164.017H142.009V170.953H149.253V172.324H142.009V179.596H150.092V180.967H140.47Z" fill="white"/>
<path d="M155.267 180.967V179.568H158.428V164.044H155.267V162.646H163.071V164.044H159.966V179.568H163.071V180.967H155.267Z" fill="white"/>
<path d="M167.49 164.072V162.646H178.735V164.072H173.868V180.967H172.329V164.072H167.49Z" fill="white"/>
<path d="M181.252 171.625C181.252 170.17 181.345 168.911 181.532 167.849C181.718 166.786 182.017 165.825 182.427 164.968C183.266 163.233 184.832 162.366 187.126 162.366C189.737 162.385 191.452 163.606 192.273 166.03C192.758 167.429 193 169.079 193 170.981C193 172.865 192.907 174.366 192.72 175.485C192.534 176.603 192.235 177.61 191.825 178.505C190.967 180.333 189.401 181.247 187.126 181.247C184.888 181.247 183.331 180.333 182.455 178.505C181.653 176.846 181.252 174.552 181.252 171.625ZM191.35 171.848C191.35 170.841 191.322 170.03 191.266 169.415C191.229 168.8 191.126 168.119 190.958 167.373C190.79 166.627 190.557 166.012 190.259 165.527C189.979 165.042 189.569 164.641 189.028 164.324C188.506 163.989 187.872 163.821 187.126 163.821C186.38 163.821 185.737 163.989 185.196 164.324C184.674 164.641 184.264 165.042 183.965 165.527C183.686 166.012 183.462 166.627 183.294 167.373C183.033 168.529 182.902 169.816 182.902 171.233C182.902 172.632 182.949 173.769 183.042 174.645C183.154 175.503 183.35 176.352 183.63 177.191C184.208 178.925 185.373 179.792 187.126 179.792C188.916 179.792 190.091 178.916 190.65 177.163C191.135 175.671 191.368 173.9 191.35 171.848Z" fill="white"/>
</g>
<path d="M179.38 0.320435L105.584 0.987138V22.3217H140.091V118.327C139.311 126.818 138.009 130.074 133.258 131.661C122.46 132.635 115.731 131.838 102.168 127.327L97.7264 146.662C115.237 152.351 124.717 152.996 141.799 152.996C154.341 150.662 156.501 147.342 158.981 143.328C162.483 137.661 164.207 130.443 164.689 115.66V22.3217H179.38V0.320435Z" fill="white"/>
<defs>
<filter id="filter0_d_27_195" x="0" y="162.366" width="195" height="19.8805" filterUnits="userSpaceOnUse" color-interpolation-filters="sRGB">
<feFlood flood-opacity="0" result="BackgroundImageFix"/>
<feColorMatrix in="SourceAlpha" type="matrix" values="0 0 0 0 0 0 0 0 0 0 0 0 0 0 0 0 0 0 127 0" result="hardAlpha"/>
<feOffset dx="2" dy="1"/>
<feComposite in2="hardAlpha" operator="out"/>
<feColorMatrix type="matrix" values="0 0 0 0 0 0 0 0 0 0 0 0 0 0 0 0 0 0 0.1 0"/>
<feBlend mode="normal" in2="BackgroundImageFix" result="effect1_dropShadow_27_195"/>
<feBlend mode="normal" in="SourceGraphic" in2="effect1_dropShadow_27_195" result="shape"/>
</filter>
</defs>
</svg>
