<svg width="27" height="27" viewBox="0 0 27 27" fill="none" xmlns="http://www.w3.org/2000/svg">
<path d="M13.5 2.43225C17.1045 2.43225 17.532 2.44575 18.9551 2.511C20.4266 2.5785 21.942 2.91375 23.0141 3.98587C24.0964 5.06812 24.4215 6.56887 24.489 8.04488C24.5542 9.468 24.5677 9.8955 24.5677 13.5C24.5677 17.1045 24.5542 17.532 24.489 18.9551C24.4226 20.4188 24.0795 21.9488 23.0141 23.0141C21.9319 24.0964 20.4323 24.4215 18.9551 24.489C17.532 24.5542 17.1045 24.5677 13.5 24.5677C9.8955 24.5677 9.468 24.5542 8.04488 24.489C6.5925 24.4226 5.04225 24.0716 3.98587 23.0141C2.90925 21.9375 2.5785 20.4221 2.511 18.9551C2.44575 17.532 2.43225 17.1045 2.43225 13.5C2.43225 9.8955 2.44575 9.468 2.511 8.04488C2.57738 6.58687 2.92387 5.04787 3.98587 3.98587C5.06588 2.90587 6.57225 2.5785 8.04488 2.511C9.468 2.44575 9.8955 2.43225 13.5 2.43225ZM13.5 0C9.83362 0 9.3735 0.01575 7.9335 0.081C5.84662 0.176625 3.77437 0.757125 2.26575 2.26575C0.7515 3.78 0.176625 5.84775 0.081 7.9335C0.01575 9.3735 0 9.83362 0 13.5C0 17.1664 0.01575 17.6265 0.081 19.0665C0.176625 21.1511 0.759375 23.229 2.26575 24.7342C3.77887 26.2474 5.85 26.8234 7.9335 26.919C9.3735 26.9842 9.83362 27 13.5 27C17.1664 27 17.6265 26.9842 19.0665 26.919C21.1523 26.8234 23.2267 26.2418 24.7342 24.7342C26.2496 23.2189 26.8234 21.1523 26.919 19.0665C26.9842 17.6265 27 17.1664 27 13.5C27 9.83362 26.9842 9.3735 26.919 7.9335C26.8234 5.84662 26.2418 3.77325 24.7342 2.26575C23.2234 0.754875 21.1466 0.1755 19.0665 0.081C17.6265 0.01575 17.1664 0 13.5 0Z" fill="white"/>
<path d="M13.5 6.56775C9.67162 6.56775 6.56775 9.67162 6.56775 13.5C6.56775 17.3284 9.67162 20.4323 13.5 20.4323C17.3284 20.4323 20.4323 17.3284 20.4323 13.5C20.4323 9.67162 17.3284 6.56775 13.5 6.56775ZM13.5 18C11.0149 18 9 15.9851 9 13.5C9 11.0149 11.0149 9 13.5 9C15.9851 9 18 11.0149 18 13.5C18 15.9851 15.9851 18 13.5 18Z" fill="white"/>
<path d="M20.7067 7.91322C21.6014 7.91322 22.3267 7.18792 22.3267 6.29322C22.3267 5.39852 21.6014 4.67322 20.7067 4.67322C19.812 4.67322 19.0867 5.39852 19.0867 6.29322C19.0867 7.18792 19.812 7.91322 20.7067 7.91322Z" fill="white"/>
</svg>
