<svg width="37" height="37" viewBox="0 0 37 37" fill="none" xmlns="http://www.w3.org/2000/svg">
<g clip-path="url(#clip0_38_30)">
<path d="M18.5 0C14.4126 0.00448871 10.494 1.63018 7.60374 4.52039C4.71353 7.41061 3.08783 11.3293 3.08334 15.4167C3.08334 23.5598 16.0333 34.7384 17.5041 35.9871L18.5 36.8289L19.4959 35.9871C20.9667 34.7384 33.9167 23.5598 33.9167 15.4167C33.9122 11.3293 32.2865 7.41061 29.3963 4.52039C26.5061 1.63018 22.5874 0.00448871 18.5 0ZM18.5 23.125C16.9754 23.125 15.4851 22.6729 14.2175 21.8259C12.9499 20.9789 11.9619 19.775 11.3784 18.3665C10.795 16.958 10.6424 15.4081 10.9398 13.9128C11.2372 12.4176 11.9714 11.0441 13.0494 9.96605C14.1274 8.88802 15.5009 8.15388 16.9962 7.85645C18.4915 7.55902 20.0413 7.71167 21.4499 8.2951C22.8584 8.87852 24.0623 9.86652 24.9093 11.1341C25.7563 12.4018 26.2083 13.8921 26.2083 15.4167C26.2059 17.4603 25.393 19.4195 23.9479 20.8646C22.5029 22.3096 20.5436 23.1226 18.5 23.125Z" fill="white"/>
<path d="M18.5 20.0416C21.0543 20.0416 23.125 17.9709 23.125 15.4166C23.125 12.8623 21.0543 10.7916 18.5 10.7916C15.9457 10.7916 13.875 12.8623 13.875 15.4166C13.875 17.9709 15.9457 20.0416 18.5 20.0416Z" fill="white"/>
</g>
<defs>
<clipPath id="clip0_38_30">
<rect width="37" height="37" fill="white"/>
</clipPath>
</defs>
</svg>
