<svg width="30" height="30" viewBox="0 0 30 30" fill="none" xmlns="http://www.w3.org/2000/svg">
<path d="M15 1.09961C13.975 1.09961 12.9499 1.48953 12.1699 2.26953L7.18944 7.25H7.33983C8.60983 7.25 9.79921 7.74063 10.6992 8.64062L14.1894 12.1309C14.6394 12.5709 15.3605 12.5709 15.8105 12.1309L19.3008 8.64062C20.2008 7.74063 21.3901 7.25 22.6601 7.25H22.8105L17.8301 2.26953C17.0501 1.48953 16.025 1.09961 15 1.09961ZM5.68944 8.75L2.26952 12.1699C0.709518 13.7299 0.709518 16.2701 2.26952 17.8301L5.68944 21.25H7.33983C8.20983 21.25 9.03061 20.9108 9.64061 20.3008L13.1308 16.8105C14.1608 15.7805 15.8391 15.7805 16.8691 16.8105L20.3594 20.3008C20.9694 20.9108 21.7901 21.25 22.6601 21.25H24.3105L27.7305 17.8301C29.2905 16.2701 29.2905 13.7299 27.7305 12.1699L24.3105 8.75H22.6601C21.7901 8.75 20.9694 9.08922 20.3594 9.69922L16.8691 13.1895C16.3591 13.6995 15.68 13.9609 15 13.9609C14.32 13.9609 13.6408 13.6995 13.1308 13.1895L9.64061 9.69922C9.03061 9.08922 8.20983 8.75 7.33983 8.75H5.68944ZM15 17.5391C14.7075 17.5391 14.4144 17.6491 14.1894 17.8691L10.6992 21.3594C9.79921 22.2594 8.60983 22.75 7.33983 22.75H7.18944L12.1699 27.7305C13.7299 29.2905 16.2701 29.2905 17.8301 27.7305L22.8105 22.75H22.6601C21.3901 22.75 20.2008 22.2594 19.3008 21.3594L15.8105 17.8691C15.5855 17.6491 15.2925 17.5391 15 17.5391Z" fill="white"/>
</svg>
