<svg width="32" height="32" viewBox="0 0 32 32" fill="none" xmlns="http://www.w3.org/2000/svg">
<path d="M16.0156 2.66663C8.67428 2.66663 2.69797 8.63779 2.6953 15.9791C2.69397 18.3258 3.30861 20.6167 4.47395 22.6354L2.66666 29.3333L9.64322 27.6849C11.5886 28.7462 13.7785 29.3033 16.0078 29.3046H16.013C23.353 29.3046 29.3267 23.3321 29.3307 15.9921C29.3334 12.4335 27.9496 9.08761 25.4349 6.57027C22.9202 4.05427 19.5783 2.66796 16.0156 2.66663ZM16.013 5.33329C18.861 5.33463 21.5375 6.44502 23.5495 8.45569C25.5615 10.469 26.6667 13.1442 26.6641 15.9895C26.6614 21.8615 21.8851 26.638 16.0104 26.638C14.2331 26.6366 12.4725 26.1904 10.9219 25.3437L10.0234 24.8541L9.03124 25.0885L6.40624 25.7083L7.04686 23.3281L7.33593 22.2604L6.78384 21.302C5.85318 19.6914 5.36064 17.8498 5.36197 15.9791C5.36464 10.1098 10.1423 5.33329 16.013 5.33329ZM11.3021 9.83329C11.0794 9.83329 10.7194 9.91663 10.4141 10.25C10.1087 10.582 9.24739 11.3861 9.24739 13.0234C9.24739 14.6607 10.4401 16.2434 10.6068 16.4661C10.7721 16.6874 12.909 20.1536 16.2917 21.4869C19.1023 22.5949 19.6732 22.3763 20.2838 22.3203C20.8945 22.2656 22.2539 21.5169 22.5312 20.7395C22.8086 19.9622 22.8092 19.2935 22.7266 19.1562C22.6439 19.0175 22.4219 18.9349 22.0885 18.7682C21.7565 18.6015 20.1204 17.7981 19.8151 17.6875C19.5098 17.5768 19.2864 17.5208 19.0651 17.8541C18.8438 18.1875 18.2077 18.9349 18.013 19.1562C17.8183 19.3789 17.625 19.4088 17.2917 19.2421C16.9583 19.0741 15.8866 18.7218 14.6146 17.5885C13.6252 16.7072 12.9577 15.6198 12.763 15.2864C12.5697 14.9544 12.7448 14.7721 12.9114 14.6067C13.0608 14.4574 13.2422 14.2181 13.4088 14.0234C13.5742 13.8287 13.6315 13.69 13.7422 13.4687C13.8528 13.2474 13.7962 13.052 13.7135 12.8854C13.6309 12.7187 12.9835 11.0753 12.6875 10.4166C12.4382 9.86329 12.1748 9.85044 11.9375 9.84111C11.7442 9.83311 11.5234 9.83329 11.3021 9.83329Z" fill="white"/>
</svg>
